HIERARCHY
ROOT hip
{
  OFFSET -98.7524 82.9107 65.8397
  CHANNELS 6 Xposition Yposition Zposition Zrotation Xrotation Yrotation
  JOINT abdomen
  {
    OFFSET 0 20.6881 -0.73152
    CHANNELS 3 Zrotation Xrotation Yrotation
    JOINT chest
    {
      OFFSET 0 11.7043 -0.48768
      CHANNELS 3 Zrotation Xrotation Yrotation
      JOINT neck
      {
        OFFSET 0 22.1894 -2.19456
        CHANNELS 3 Zrotation Xrotation Yrotation
        JOINT head
        {
          OFFSET -0.24384 7.07133 1.2192
          CHANNELS 3 Zrotation Xrotation Yrotation
          JOINT leftEye
          {
            OFFSET 4.14528 8.04674 8.04672
            CHANNELS 3 Zrotation Xrotation Yrotation
            End Site
            {
              OFFSET 1 0 0
            }
          }
          JOINT rightEye
          {
            OFFSET -3.6576 8.04674 8.04672
            CHANNELS 3 Zrotation Xrotation Yrotation
            End Site
            {
              OFFSET 1 0 0
            }
          }
        }
      }
      JOINT rCollar
      {
        OFFSET -2.68224 19.2634 -4.8768
        CHANNELS 3 Zrotation Xrotation Yrotation
        JOINT rShldr
        {
          OFFSET -8.77824 -1.95073 1.46304
          CHANNELS 3 Zrotation Xrotation Yrotation
          JOINT rForeArm
          {
            OFFSET -28.1742 -1.7115 0.48768
            CHANNELS 3 Zrotation Xrotation Yrotation
            JOINT rHand
            {
              OFFSET -22.5879 0.773209 7.07136
              CHANNELS 3 Zrotation Xrotation Yrotation
              JOINT rThumb1
              {
                OFFSET -1.2192 -0.487915 3.41376
                CHANNELS 3 Zrotation Xrotation Yrotation
                JOINT rThumb2
                {
                  OFFSET -3.37035 -0.52449 3.41376
                  CHANNELS 3 Zrotation Xrotation Yrotation
                  End Site
                  {
                    OFFSET -1.78271 -1.18214 1.43049
                  }
                }
              }
              JOINT rIndex1
              {
                OFFSET -7.75947 0.938293 5.60832
                CHANNELS 3 Zrotation Xrotation Yrotation
                JOINT rIndex2
                {
                  OFFSET -2.54057 -0.884171 1.56538
                  CHANNELS 3 Zrotation Xrotation Yrotation
                  End Site
                  {
                    OFFSET -1.62519 -0.234802 1.16502
                  }
                }
              }
              JOINT rMid1
              {
                OFFSET -8.24714 1.18213 3.41376
                CHANNELS 3 Zrotation Xrotation Yrotation
                JOINT rMid2
                {
                  OFFSET -3.10165 -0.590103 1.0647
                  CHANNELS 3 Zrotation Xrotation Yrotation
                  End Site
                  {
                    OFFSET -2.48547 -0.328903 0.83742
                  }
                }
              }
              JOINT rRing1
              {
                OFFSET -8.82822 0.546677 1.51678
                CHANNELS 3 Zrotation Xrotation Yrotation
                JOINT rRing2
                {
                  OFFSET -2.60934 -0.819778 -0.0198488
                  CHANNELS 3 Zrotation Xrotation Yrotation
                  End Site
                  {
                    OFFSET -2.33842 -0.294052 0.168128
                  }
                }
              }
              JOINT rPinky1
              {
                OFFSET -8.27202 -0.0477905 -0.4584
                CHANNELS 3 Zrotation Xrotation Yrotation
                JOINT rPinky2
                {
                  OFFSET -1.82734 -0.647385 -0.700984
                  CHANNELS 3 Zrotation Xrotation Yrotation
                  End Site
                  {
                    OFFSET -1.69225 -0.51767 -0.607171
                  }
                }
              }
            }
          }
        }
      }
      JOINT lCollar
      {
        OFFSET 2.68224 19.2634 -4.8768
        CHANNELS 3 Zrotation Xrotation Yrotation
        JOINT lShldr
        {
          OFFSET 8.77824 -1.95073 1.46304
          CHANNELS 3 Zrotation Xrotation Yrotation
          JOINT lForeArm
          {
            OFFSET 28.1742 -1.7115 0.48768
            CHANNELS 3 Zrotation Xrotation Yrotation
            JOINT lHand
            {
              OFFSET 22.5879 0.773209 7.07136
              CHANNELS 3 Zrotation Xrotation Yrotation
              JOINT lThumb1
              {
                OFFSET 1.2192 -0.487915 3.41376
                CHANNELS 3 Zrotation Xrotation Yrotation
                JOINT lThumb2
                {
                  OFFSET 3.37035 -0.52449 3.41376
                  CHANNELS 3 Zrotation Xrotation Yrotation
                  End Site
                  {
                    OFFSET 1.78271 -1.18214 1.43049
                  }
                }
              }
              JOINT lIndex1
              {
                OFFSET 7.75947 0.938293 5.60832
                CHANNELS 3 Zrotation Xrotation Yrotation
                JOINT lIndex2
                {
                  OFFSET 2.54057 -0.884171 1.56538
                  CHANNELS 3 Zrotation Xrotation Yrotation
                  End Site
                  {
                    OFFSET 1.62519 -0.234802 1.16502
                  }
                }
              }
              JOINT lMid1
              {
                OFFSET 8.24714 1.18213 3.41376
                CHANNELS 3 Zrotation Xrotation Yrotation
                JOINT lMid2
                {
                  OFFSET 3.10165 -0.590103 1.0647
                  CHANNELS 3 Zrotation Xrotation Yrotation
                  End Site
                  {
                    OFFSET 2.48547 -0.328903 0.83742
                  }
                }
              }
              JOINT lRing1
              {
                OFFSET 8.82822 0.546677 1.51678
                CHANNELS 3 Zrotation Xrotation Yrotation
                JOINT lRing2
                {
                  OFFSET 2.60934 -0.819778 -0.0198488
                  CHANNELS 3 Zrotation Xrotation Yrotation
                  End Site
                  {
                    OFFSET 2.33842 -0.294052 0.168128
                  }
                }
              }
              JOINT lPinky1
              {
                OFFSET 8.27202 -0.0477905 -0.4584
                CHANNELS 3 Zrotation Xrotation Yrotation
                JOINT lPinky2
                {
                  OFFSET 1.82734 -0.647385 -0.700984
                  CHANNELS 3 Zrotation Xrotation Yrotation
                  End Site
                  {
                    OFFSET 1.69225 -0.51767 -0.607171
                  }
                }
              }
            }
          }
        }
      }
    }
  }
  JOINT rButtock
  {
    OFFSET -8.77824 4.35084 1.2192
    CHANNELS 3 Zrotation Xrotation Yrotation
    JOINT rThigh
    {
      OFFSET 0 -1.70687 -2.19456
      CHANNELS 3 Zrotation Xrotation Yrotation
      JOINT rShin
      {
        OFFSET 0 -36.8199 0.73152
        CHANNELS 3 Zrotation Xrotation Yrotation
        JOINT rFoot
        {
          OFFSET 0.73152 -45.1104 -5.12064
          CHANNELS 3 Zrotation Xrotation Yrotation
          End Site
          {
            OFFSET -1.1221 -3.69964 12.103
          }
        }
      }
    }
  }
  JOINT lButtock
  {
    OFFSET 8.77824 4.35084 1.2192
    CHANNELS 3 Zrotation Xrotation Yrotation
    JOINT lThigh
    {
      OFFSET 0 -1.70687 -2.19456
      CHANNELS 3 Zrotation Xrotation Yrotation
      JOINT lShin
      {
        OFFSET 0 -36.8199 0.73152
        CHANNELS 3 Zrotation Xrotation Yrotation
        JOINT lFoot
        {
          OFFSET -0.73152 -45.1104 -5.12064
          CHANNELS 3 Zrotation Xrotation Yrotation
          End Site
          {
            OFFSET 1.1221 -3.69964 12.103
          }
        }
      }
    }
  }
}
MOTION
Frames:	5
Frame Time:	0.00833333
73.4696 84.8839 -97.3786 0.147522 -0.000239384 -0.00252446 -0.194077 -0.000752048 -0.00553942 -0.0535363 -0.00112971 -0.00927448 1.42735e-015 -1.59028e-015 3.10601e-018 4.31114e-015 3.18055e-015 2.79541e-017 -0 0 0 -0 0 0 6.44754e-016 1.55301e-018 9.93923e-017 1.8263e-014 1.05604e-016 1.19271e-015 2.61153e-013 -7.51406e-014 6.36111e-015 2.97298e-012 8.61732e-014 3.18055e-015 7.01385e-012 2.29288e-014 4.45278e-014 1.21119e-011 3.18055e-014 7.4743e-014 7.01948e-012 2.54444e-014 3.18055e-014 7.73091 5.47488 0.417314 7.01387e-012 2.34566e-014 4.13472e-014 2.90554 0.965183 0.102902 7.02327e-012 2.29596e-014 4.37326e-014 10.2786 0.731801 0.0259123 7.01948e-012 2.14687e-014 5.08889e-014 2.22167 -0.733487 -0.20892 7.46784e-016 1.55301e-018 -9.93923e-017 1.19564e-014 -1.80149e-016 -7.95139e-016 2.58967e-013 7.87187e-014 -2.22639e-014 2.97445e-012 -7.55382e-014 3.49861e-014 7.01469e-012 1.19969e-014 3.49861e-014 1.21143e-011 1.59028e-014 7.07673e-014 7.00756e-012 1.51076e-014 5.08889e-014 -7.73091 5.47488 -0.417314 7.01407e-012 1.2424e-014 3.49861e-014 -2.90554 0.965183 -0.102902 7.0046e-012 1.26228e-014 4.05521e-014 -10.2786 0.731801 -0.0259123 7.01352e-012 1.19271e-014 3.49861e-014 -2.22167 -0.733487 0.20892 -2.03217e-016 0 -3.88251e-019 0.355852 -2.82714 -0.0340694 -0.00665505 -0.431854 -0.0584472 -0.502542 3.25829 0.123799 2.03217e-016 0 3.88251e-019 -0.651363 -3.58303 0.0525572 0.00446003 0.937454 0.0381205 0.504971 2.64491 -0.111592 
73.3906 83.7888 -98.423 0.0997502 0.829164 0.496348 0.200184 2.7833 1.92662 -0.624328 -1.06921 0.517801 -3.71998 -0.868954 -2.15756 4.25828 1.83188 -3.23914 -0 0 0 -0 0 0 -1.20775e-015 -5.56573e-015 2.92101e-014 22.7943 4.39985 0.0785635 -4.72906 -2.26081 7.26077 0.00200667 1.00796 0.141585 -1.05341e-010 3.51739e-010 -4.67783e-011 -1.82581e-010 6.08768e-010 -8.01415e-011 -1.05336e-010 3.5174e-010 -4.67891e-011 7.73091 5.47488 0.417314 -1.05342e-010 3.5174e-010 -4.67795e-011 2.90554 0.965183 0.102902 -1.05333e-010 3.51739e-010 -4.67763e-011 10.2786 0.731801 0.0259123 -1.05339e-010 3.51738e-010 -4.6767e-011 2.22167 -0.733487 -0.20892 -1.17931e-015 -5.5644e-015 2.90113e-014 -22.1841 1.24849 1.40818 3.5826 -1.51881 -5.70854 -0.0247213 3.49155 -0.487427 -1.42065e-010 -2.043e-010 3.21773e-010 -2.4191e-010 -3.53308e-010 5.58417e-010 -1.42071e-010 -2.04297e-010 3.21783e-010 -7.73091 5.47488 -0.417314 -1.42066e-010 -2.043e-010 3.21771e-010 -2.90554 0.965183 -0.102902 -1.42074e-010 -2.04299e-010 3.21777e-010 -10.2786 0.731801 -0.0259123 -1.42064e-010 -2.04298e-010 3.21769e-010 -2.22167 -0.733487 0.20892 -2.03217e-016 0 -3.88251e-019 1.15546 0.520695 -0.269503 -0.00982078 5.65475 0.0279242 -0.530101 2.77189 -0.39633 2.03217e-016 0 3.88251e-019 -1.19833 -9.47949 0.654971 0.0255718 5.70629 0.0313241 0.482359 2.83982 -1.67786 
73.5834 83.8706 -97.6884 0.0185605 1.71087 1.01663 0.432726 5.71242 3.99136 -1.211 -2.19537 1.07844 -7.72409 -1.78482 -4.44146 8.98472 3.75215 -6.67696 -0 0 0 -0 0 0 -2.37883e-015 -1.43137e-014 5.94397e-014 46.8806 9.05295 0.174046 -9.11507 -4.53318 14.9792 -0.00130908 2.054 0.288669 -2.28475e-010 7.10569e-010 -8.39617e-011 -3.9585e-010 1.22977e-009 -1.43625e-010 -2.28472e-010 7.10569e-010 -8.39702e-011 7.73091 5.47488 0.417314 -2.28476e-010 7.10569e-010 -8.39607e-011 2.90554 0.965183 0.102902 -2.28468e-010 7.10569e-010 -8.39565e-011 10.2786 0.731801 0.0259123 -2.28477e-010 7.10569e-010 -8.39446e-011 2.22167 -0.733487 -0.20892 -2.42944e-015 -1.43109e-014 5.92409e-014 -45.6996 2.55441 2.90722 7.03573 -3.06969 -11.7452 0.0142917 7.19766 -1.011 -2.99081e-010 -4.20207e-010 6.33003e-010 -5.097e-010 -7.26725e-010 1.09872e-009 -2.99086e-010 -4.20206e-010 6.33005e-010 -7.73091 5.47488 -0.417314 -2.99082e-010 -4.20207e-010 6.32999e-010 -2.90554 0.965183 -0.102902 -2.99089e-010 -4.20206e-010 6.33004e-010 -10.2786 0.731801 -0.0259123 -2.99078e-010 -4.20204e-010 6.32995e-010 -2.22167 -0.733487 0.20892 -2.03217e-016 0 -3.88251e-019 2.05684 4.1221 -0.510713 -0.0325387 11.9622 0.121066 -0.571986 2.1472 -0.969408 2.03217e-016 0 3.88251e-019 -1.61935 -15.7488 1.30109 0.0490508 10.7586 0.0226013 0.470389 3.05906 -3.30076 
73.7787 83.9658 -96.987 -0.0391526 2.48722 1.49535 0.421378 8.31326 5.84576 -1.70689 -3.20428 1.57414 -11.356 -2.59208 -6.4786 13.3953 5.4253 -9.75657 -0 0 0 -0 0 0 -4.91274e-015 -1.67003e-014 8.74315e-014 68.346 13.1994 0.241373 -12.5054 -6.3477 21.9064 -0.00894243 3.02382 0.425282 -3.3005e-010 1.05517e-009 -1.40424e-010 -5.71968e-010 1.82624e-009 -2.40574e-010 -3.30048e-010 1.05517e-009 -1.40431e-010 7.73091 5.47488 0.417314 -3.30053e-010 1.05517e-009 -1.40421e-010 2.90554 0.965183 0.102902 -3.30045e-010 1.05517e-009 -1.40416e-010 10.2786 0.731801 0.0259123 -3.30055e-010 1.05517e-009 -1.40403e-010 2.22167 -0.733487 -0.20892 -5.0315e-015 -1.66963e-014 8.72327e-014 -66.7366 3.73643 4.23254 9.85266 -4.37584 -17.1712 0.106605 10.4716 -1.48429 -4.40225e-010 -6.12923e-010 9.6525e-010 -7.49958e-010 -1.05996e-009 1.67511e-009 -4.40229e-010 -6.12922e-010 9.65247e-010 -7.73091 5.47488 -0.417314 -4.40225e-010 -6.12924e-010 9.65244e-010 -2.90554 0.965183 -0.102902 -4.40231e-010 -6.12922e-010 9.65249e-010 -10.2786 0.731801 -0.0259123 -4.4022e-010 -6.12918e-010 9.65238e-010 -2.22167 -0.733487 0.20892 -2.03217e-016 0 -3.88251e-019 2.83771 7.21577 -0.746331 -0.0731817 17.8278 0.210357 -0.611724 1.79871 -1.4355 2.03217e-016 0 3.88251e-019 -1.8957 -21.2628 1.96713 0.0711835 15.244 0.0179058 0.46907 3.22191 -4.81206 
73.9626 84.0184 -96.2729 -0.0081428 3.00081 1.86898 0.204236 10.1302 7.12199 -2.01777 -3.92113 1.9054 -13.9184 -3.14201 -7.89314 16.5763 6.5482 -11.903 -0 0 0 -0 0 0 -1.08537e-014 -3.18366e-015 1.09829e-013 83.2937 16.0796 0.231083 -14.5837 -7.43518 26.7361 -0.0177725 3.80317 0.535295 -3.77729e-010 1.3642e-009 -2.45084e-010 -6.55207e-010 2.36136e-009 -4.21184e-010 -3.77728e-010 1.3642e-009 -2.4509e-010 7.73091 5.47488 0.417314 -3.77732e-010 1.3642e-009 -2.45081e-010 2.90554 0.965183 0.102902 -3.77724e-010 1.3642e-009 -2.45076e-010 10.2786 0.731801 0.0259123 -3.77736e-010 1.3642e-009 -2.45062e-010 2.22167 -0.733487 -0.20892 -1.10134e-014 -3.179e-015 1.0963e-013 -81.4479 4.61736 5.11615 11.6984 -5.23934 -21.0276 0.200959 12.668 -1.81026 -5.41687e-010 -7.47662e-010 1.35004e-009 -9.21389e-010 -1.29273e-009 2.34172e-009 -5.41691e-010 -7.47662e-010 1.35003e-009 -7.73091 5.47488 -0.417314 -5.41687e-010 -7.47663e-010 1.35003e-009 -2.90554 0.965183 -0.102902 -5.41693e-010 -7.47661e-010 1.35004e-009 -10.2786 0.731801 -0.0259123 -5.41681e-010 -7.47656e-010 1.35003e-009 -2.22167 -0.733487 0.20892 -2.03217e-016 0 -3.88251e-019 3.26066 9.0406 -0.961209 -0.120675 22.5893 0.281606 -0.617777 2.14072 -1.63502 2.03217e-016 0 3.88251e-019 -2.08041 -24.8961 2.59189 0.0861824 18.3121 0.0236365 0.468443 3.24945 -6.04293 
